<svg width="20" height="20" viewBox="0 0 20 20" fill="none" xmlns="http://www.w3.org/2000/svg">
<path d="M7.5 12.688C11.5668 12.688 15 13.3572 15 15.9416C15 18.526 11.5448 19.1729 7.5 19.1729C3.4332 19.1729 0 18.5027 0 15.9193C0 13.3349 3.45422 12.688 7.5 12.688ZM16.999 5.17285C17.4952 5.17285 17.8979 5.5823 17.8979 6.08447V7.26071H19.101C19.5962 7.26071 20 7.67016 20 8.17233C20 8.6745 19.5962 9.08395 19.101 9.08395H17.8979V10.2612C17.8979 10.7634 17.4952 11.1729 16.999 11.1729C16.5038 11.1729 16.1 10.7634 16.1 10.2612V9.08395H14.899C14.4027 9.08395 14 8.6745 14 8.17233C14 7.67016 14.4027 7.26071 14.899 7.26071H16.1V6.08447C16.1 5.5823 16.5038 5.17285 16.999 5.17285ZM7.5 0.172852C10.2546 0.172852 12.4626 2.40948 12.4626 5.19969C12.4626 7.9899 10.2546 10.2265 7.5 10.2265C4.74543 10.2265 2.53737 7.9899 2.53737 5.19969C2.53737 2.40948 4.74543 0.172852 7.5 0.172852Z" fill="white"/>
</svg>
