<svg width="25" height="24" viewBox="0 0 25 24" fill="none" xmlns="http://www.w3.org/2000/svg">
<path d="M16.8785 2C19.9675 2 21.6875 3.78 21.6875 6.83V17.16C21.6875 20.26 19.9675 22 16.8785 22H8.4975C5.4575 22 3.6875 20.26 3.6875 17.16V6.83C3.6875 3.78 5.4575 2 8.4975 2H16.8785ZM8.7675 15.74C8.4675 15.71 8.1775 15.85 8.0175 16.11C7.8575 16.36 7.8575 16.69 8.0175 16.95C8.1775 17.2 8.4675 17.35 8.7675 17.31H16.6075C17.0065 17.27 17.3075 16.929 17.3075 16.53C17.3075 16.12 17.0065 15.78 16.6075 15.74H8.7675ZM16.6075 11.179H8.7675C8.3365 11.179 7.9875 11.53 7.9875 11.96C7.9875 12.39 8.3365 12.74 8.7675 12.74H16.6075C17.0375 12.74 17.3875 12.39 17.3875 11.96C17.3875 11.53 17.0375 11.179 16.6075 11.179ZM11.7565 6.65H8.7675V6.66C8.3365 6.66 7.9875 7.01 7.9875 7.44C7.9875 7.87 8.3365 8.22 8.7675 8.22H11.7565C12.1875 8.22 12.5375 7.87 12.5375 7.429C12.5375 7 12.1875 6.65 11.7565 6.65Z" fill="#2051E5"/>
</svg>
