<svg width="19" height="21" viewBox="0 0 19 21" fill="none" xmlns="http://www.w3.org/2000/svg">
<path d="M13.691 0.672852C16.78 0.672852 18.5 2.45285 18.5 5.50285V15.8329C18.5 18.9329 16.78 20.6729 13.691 20.6729H5.31C2.27 20.6729 0.5 18.9329 0.5 15.8329V5.50285C0.5 2.45285 2.27 0.672852 5.31 0.672852H13.691ZM5.58 14.4129C5.28 14.3829 4.99 14.5229 4.83 14.7829C4.67 15.0329 4.67 15.3629 4.83 15.6229C4.99 15.8729 5.28 16.0229 5.58 15.9829H13.42C13.819 15.9429 14.12 15.6019 14.12 15.2029C14.12 14.7929 13.819 14.4529 13.42 14.4129H5.58ZM13.42 9.85185H5.58C5.149 9.85185 4.8 10.2029 4.8 10.6329C4.8 11.0629 5.149 11.4129 5.58 11.4129H13.42C13.85 11.4129 14.2 11.0629 14.2 10.6329C14.2 10.2029 13.85 9.85185 13.42 9.85185ZM8.569 5.32285H5.58V5.33285C5.149 5.33285 4.8 5.68285 4.8 6.11285C4.8 6.54285 5.149 6.89285 5.58 6.89285H8.569C9 6.89285 9.35 6.54285 9.35 6.10185C9.35 5.67285 9 5.32285 8.569 5.32285Z" fill="white"/>
</svg>
