<svg width="25" height="24" viewBox="0 0 25 24" fill="none" xmlns="http://www.w3.org/2000/svg">
<path fill-rule="evenodd" clip-rule="evenodd" d="M4.75267 3C3.88858 3 3.1875 3.71286 3.1875 4.5904V5.52644C3.1875 6.17647 3.43469 6.80158 3.87686 7.27177L8.7226 12.4243L8.72473 12.4211C9.66021 13.3788 10.1866 14.6734 10.1866 16.0233V20.5952C10.1866 20.9007 10.5062 21.0957 10.7715 20.9516L13.5311 19.4479C13.9477 19.2204 14.2076 18.7784 14.2076 18.2984V16.0114C14.2076 14.6691 14.7265 13.3799 15.6535 12.4243L20.4992 7.27177C20.9403 6.80158 21.1875 6.17647 21.1875 5.52644V4.5904C21.1875 3.71286 20.4875 3 19.6234 3H4.75267Z" stroke="black" stroke-width="1.5" stroke-linecap="round" stroke-linejoin="round"/>
</svg>
