<svg width="25" height="25" viewBox="0 0 25 25" fill="none" xmlns="http://www.w3.org/2000/svg">
<path fill-rule="evenodd" clip-rule="evenodd" d="M4.89867 3.97949C4.03457 3.97949 3.3335 4.69236 3.3335 5.56989V6.50593C3.3335 7.15596 3.58068 7.78107 4.02285 8.25126L8.8686 13.4038L8.87073 13.4006C9.80621 14.3583 10.3325 15.6529 10.3325 17.0028V21.5747C10.3325 21.8802 10.6522 22.0752 10.9175 21.9311L13.677 20.4274C14.0936 20.1999 14.3536 19.7578 14.3536 19.2779V16.9909C14.3536 15.6486 14.8725 14.3594 15.7995 13.4038L20.6452 8.25126C21.0863 7.78107 21.3335 7.15596 21.3335 6.50593V5.56989C21.3335 4.69236 20.6335 3.97949 19.7694 3.97949H4.89867Z" stroke="white" stroke-width="1.5" stroke-linecap="round" stroke-linejoin="round"/>
</svg>
