<svg width="21" height="18" viewBox="0 0 21 18" fill="none" xmlns="http://www.w3.org/2000/svg">
<path d="M7.84933 11.8577C11.8347 11.8577 15.1987 12.4911 15.1987 14.9404C15.1987 17.3877 11.8131 18 7.84933 18L7.5786 17.999C3.71283 17.9703 0.5 17.3109 0.5 14.9174C0.5 12.47 3.88553 11.8577 7.84933 11.8577ZM14.0697 10.3832C15.5854 10.3545 17.2155 10.5586 17.8173 10.7023C19.0932 10.9466 19.9317 11.444 20.2791 12.1694C20.5736 12.7635 20.5736 13.4534 20.2791 14.0475C19.7478 15.1705 18.0335 15.5318 17.3672 15.6247C17.2292 15.6439 17.1186 15.5289 17.1333 15.3928C17.4738 12.2805 14.7664 10.8048 14.0658 10.4656C14.0364 10.4493 14.0296 10.4263 14.0325 10.411C14.0345 10.4014 14.0472 10.3861 14.0697 10.3832ZM7.84933 0C10.5489 0 12.7124 2.11865 12.7124 4.76241C12.7124 7.40617 10.5489 9.52482 7.84933 9.52482C5.1507 9.52482 2.98631 7.40617 2.98631 4.76241C2.98631 2.11865 5.1507 0 7.84933 0ZM14.3339 0.795428C16.9415 0.795428 18.9885 3.19676 18.2908 5.87118C17.8202 7.67362 16.1167 8.87045 14.2184 8.82158C14.0276 8.81774 13.8407 8.79954 13.6587 8.76983C13.5276 8.74683 13.4611 8.60214 13.5364 8.49482C14.2605 7.45131 14.6734 6.19506 14.6734 4.84875C14.6734 3.44206 14.2233 2.13216 13.4396 1.05607C13.4141 1.02253 13.3955 0.971743 13.421 0.932455C13.4405 0.901792 13.4797 0.884544 13.5159 0.876878C13.7801 0.824175 14.0511 0.795428 14.3339 0.795428Z" fill="white"/>
</svg>
