<svg width="25" height="25" viewBox="0 0 25 25" fill="none" xmlns="http://www.w3.org/2000/svg">
<path d="M9.75097 21.1332V18.0665C9.75095 17.2865 10.3869 16.6526 11.1748 16.6474H14.0608C14.8525 16.6474 15.4943 17.2828 15.4943 18.0665V21.1427C15.4941 21.805 16.028 22.3463 16.6968 22.3618H18.6208C20.5389 22.3618 22.0938 20.8225 22.0938 18.9236V10.1997C22.0835 9.45264 21.7292 8.75117 21.1317 8.29485L14.5515 3.04712C13.3987 2.13338 11.76 2.13338 10.6072 3.04712L4.05578 8.30437C3.45601 8.75884 3.10114 9.46148 3.09375 10.2092V18.9236C3.09375 20.8225 4.64863 22.3618 6.56666 22.3618H8.49071C9.1761 22.3618 9.73172 21.8118 9.73172 21.1332" stroke="#868686" stroke-width="1.5" stroke-linecap="round" stroke-linejoin="round"/>
</svg>
