<svg width="25" height="25" viewBox="0 0 25 25" fill="none" xmlns="http://www.w3.org/2000/svg">
<path d="M10.7132 19.3397C11.2131 19.234 14.2593 19.234 14.7592 19.3397C15.1866 19.4384 15.6487 19.6691 15.6487 20.1727C15.6238 20.6521 15.3426 21.0771 14.954 21.347C14.4501 21.7398 13.8588 21.9886 13.2406 22.0782C12.8987 22.1225 12.5628 22.1235 12.2328 22.0782C11.6136 21.9886 11.0223 21.7398 10.5194 21.346C10.1298 21.0771 9.84852 20.6521 9.82367 20.1727C9.82367 19.6691 10.2858 19.4384 10.7132 19.3397ZM12.7952 2.11182C14.8754 2.11182 17.0002 3.09884 18.2625 4.73648C19.0814 5.79098 19.4571 6.84447 19.4571 8.48212V8.90815C19.4571 10.1641 19.789 10.9043 20.5195 11.7574C21.0731 12.3859 21.25 13.1926 21.25 14.0678C21.25 14.9421 20.9628 15.772 20.3873 16.4457C19.634 17.2535 18.5715 17.7692 17.4872 17.8588C15.9159 17.9927 14.3437 18.1056 12.7505 18.1056C11.1563 18.1056 9.58505 18.0381 8.01375 17.8588C6.92846 17.7692 5.86602 17.2535 5.11367 16.4457C4.53822 15.772 4.25 14.9421 4.25 14.0678C4.25 13.1926 4.4279 12.3859 4.98049 11.7574C5.73384 10.9043 6.04392 10.1641 6.04392 8.90815V8.48212C6.04392 6.80016 6.46333 5.70034 7.327 4.62368C8.61106 3.05351 10.6694 2.11182 12.7058 2.11182H12.7952Z" fill="#2051E5"/>
</svg>
