<svg width="33" height="32" viewBox="0 0 33 32" fill="none" xmlns="http://www.w3.org/2000/svg">
<rect x="0.75" width="32" height="32" rx="16" fill="#DDDEE1"/>
<path d="M14.8381 23.5005C14.7543 23.5006 14.6715 23.4823 14.5956 23.447C14.5196 23.4117 14.4523 23.3601 14.3984 23.296C14.3445 23.2319 14.3053 23.1567 14.2835 23.0758C14.2618 22.9949 14.258 22.9102 14.2724 22.8277V22.8243L15.1509 18.0005H11.7499C11.6555 18.0005 11.5631 17.9738 11.4832 17.9234C11.4034 17.8731 11.3394 17.8011 11.2988 17.7159C11.2581 17.6307 11.2424 17.5358 11.2534 17.442C11.2645 17.3483 11.3018 17.2596 11.3612 17.1862L18.2103 8.71928C18.2882 8.62032 18.3964 8.54962 18.5184 8.51798C18.6403 8.48635 18.7693 8.49553 18.8855 8.54411C19.0018 8.5927 19.0989 8.67802 19.162 8.78702C19.2252 8.89603 19.2509 9.02272 19.2353 9.14772C19.2353 9.1571 19.2328 9.16616 19.2312 9.17553L18.3496 14.0005H21.7499C21.8443 14.0005 21.9368 14.0273 22.0167 14.0776C22.0965 14.128 22.1605 14.1999 22.2011 14.2851C22.2418 14.3703 22.2575 14.4653 22.2465 14.559C22.2354 14.6528 22.1981 14.7415 22.1387 14.8149L15.2887 23.2818C15.2349 23.3498 15.1664 23.4048 15.0884 23.4427C15.0104 23.4805 14.9248 23.5003 14.8381 23.5005Z" fill="#515669"/>
</svg>
