<svg width="25" height="24" viewBox="0 0 25 24" fill="none" xmlns="http://www.w3.org/2000/svg">
<path fill-rule="evenodd" clip-rule="evenodd" d="M21.3067 7.62361L20.6842 6.54352C20.1577 5.6296 18.9907 5.31432 18.0755 5.83872C17.6399 6.09534 17.1201 6.16815 16.6307 6.04109C16.1413 5.91402 15.7226 5.59752 15.4668 5.16137C15.3023 4.88415 15.2139 4.56839 15.2105 4.24604C15.2254 3.72922 15.0304 3.2284 14.67 2.85767C14.3096 2.48694 13.8145 2.27786 13.2975 2.27808H12.0435C11.537 2.27808 11.0513 2.47991 10.694 2.83895C10.3367 3.19798 10.1372 3.68459 10.1396 4.19112C10.1246 5.23693 9.27248 6.07681 8.22657 6.0767C7.90421 6.07336 7.58846 5.98494 7.31123 5.82041C6.39606 5.29601 5.22911 5.61129 4.70254 6.52522L4.03435 7.62361C3.50841 8.53639 3.8194 9.70261 4.73 10.2323C5.3219 10.574 5.68653 11.2056 5.68653 11.8891C5.68653 12.5725 5.3219 13.2041 4.73 13.5458C3.82056 14.0719 3.50923 15.2353 4.03435 16.1454L4.66593 17.2346C4.91265 17.6798 5.3266 18.0083 5.81619 18.1474C6.30578 18.2866 6.83064 18.2249 7.27462 17.976C7.71108 17.7213 8.23119 17.6516 8.71934 17.7822C9.20749 17.9128 9.62324 18.233 9.87416 18.6717C10.0387 18.9489 10.1271 19.2646 10.1305 19.587C10.1305 20.6435 10.987 21.5 12.0435 21.5H13.2975C14.3505 21.5 15.2055 20.6491 15.2105 19.5962C15.2081 19.088 15.4089 18.6 15.7682 18.2407C16.1275 17.8814 16.6155 17.6807 17.1236 17.6831C17.4452 17.6917 17.7596 17.7798 18.0389 17.9394C18.9517 18.4653 20.1179 18.1544 20.6476 17.2438L21.3067 16.1454C21.5618 15.7075 21.6318 15.186 21.5012 14.6964C21.3706 14.2067 21.0502 13.7894 20.611 13.5367C20.1718 13.284 19.8514 12.8666 19.7208 12.3769C19.5902 11.8873 19.6603 11.3658 19.9154 10.928C20.0812 10.6383 20.3214 10.3982 20.611 10.2323C21.5161 9.70289 21.8264 8.54349 21.3067 7.63277V7.62361Z" stroke="#868686" stroke-width="1.5" stroke-linecap="round" stroke-linejoin="round"/>
<path d="M12.675 14.5252C14.1309 14.5252 15.3111 13.345 15.3111 11.8891C15.3111 10.4332 14.1309 9.25293 12.675 9.25293C11.2191 9.25293 10.0388 10.4332 10.0388 11.8891C10.0388 13.345 11.2191 14.5252 12.675 14.5252Z" stroke="#868686" stroke-width="1.5" stroke-linecap="round" stroke-linejoin="round"/>
</svg>
