<svg width="25" height="24" viewBox="0 0 25 24" fill="none" xmlns="http://www.w3.org/2000/svg">
<path d="M12.7834 2C13.5396 2 14.2243 2.42 14.6025 3.04C14.7864 3.34 14.9091 3.71 14.8784 4.1C14.858 4.4 14.9499 4.7 15.1135 4.98C15.6346 5.83 16.7895 6.15 17.6888 5.67C18.7005 5.09 19.978 5.44 20.5605 6.43L21.2452 7.61C21.8379 8.6 21.5109 9.87 20.4889 10.44C19.6203 10.95 19.3137 12.08 19.8349 12.94C19.9984 13.21 20.1824 13.44 20.4685 13.58C20.8262 13.77 21.1021 14.07 21.2963 14.37C21.6744 14.99 21.6438 15.75 21.2759 16.42L20.5605 17.62C20.1824 18.26 19.4772 18.66 18.7516 18.66C18.3939 18.66 17.9954 18.56 17.6683 18.36C17.4026 18.19 17.096 18.13 16.769 18.13C15.7573 18.13 14.9091 18.96 14.8784 19.95C14.8784 21.1 13.9382 22 12.7629 22H11.3731C10.1876 22 9.24742 21.1 9.24742 19.95C9.22698 18.96 8.37875 18.13 7.36701 18.13C7.02977 18.13 6.72318 18.19 6.46769 18.36C6.14067 18.56 5.73188 18.66 5.38442 18.66C4.64861 18.66 3.94346 18.26 3.56533 17.62L2.86018 16.42C2.48206 15.77 2.46162 14.99 2.83974 14.37C3.00326 14.07 3.30984 13.77 3.65731 13.58C3.94346 13.44 4.12741 13.21 4.30114 12.94C4.81212 12.08 4.50553 10.95 3.63687 10.44C2.62513 9.87 2.29811 8.6 2.88062 7.61L3.56533 6.43C4.15807 5.44 5.42529 5.09 6.44725 5.67C7.33636 6.15 8.49117 5.83 9.01237 4.98C9.17588 4.7 9.26785 4.4 9.24742 4.1C9.22698 3.71 9.33939 3.34 9.53356 3.04C9.91169 2.42 10.5964 2.02 11.3424 2H12.7834ZM12.0782 9.18C10.4738 9.18 9.17588 10.44 9.17588 12.01C9.17588 13.58 10.4738 14.83 12.0782 14.83C13.6827 14.83 14.9499 13.58 14.9499 12.01C14.9499 10.44 13.6827 9.18 12.0782 9.18Z" fill="#2051E5"/>
</svg>
