<svg width="25" height="45" viewBox="0 0 25 45" fill="none" xmlns="http://www.w3.org/2000/svg">
<path d="M16.691 2C19.78 2 21.5 3.78 21.5 6.83V17.16C21.5 20.26 19.78 22 16.691 22H8.31C5.27 22 3.5 20.26 3.5 17.16V6.83C3.5 3.78 5.27 2 8.31 2H16.691ZM8.58 15.74C8.28 15.71 7.99 15.85 7.83 16.11C7.67 16.36 7.67 16.69 7.83 16.95C7.99 17.2 8.28 17.35 8.58 17.31H16.42C16.819 17.27 17.12 16.929 17.12 16.53C17.12 16.12 16.819 15.78 16.42 15.74H8.58ZM16.42 11.179H8.58C8.149 11.179 7.8 11.53 7.8 11.96C7.8 12.39 8.149 12.74 8.58 12.74H16.42C16.85 12.74 17.2 12.39 17.2 11.96C17.2 11.53 16.85 11.179 16.42 11.179ZM11.569 6.65H8.58V6.66C8.149 6.66 7.8 7.01 7.8 7.44C7.8 7.87 8.149 8.22 8.58 8.22H11.569C12 8.22 12.35 7.87 12.35 7.429C12.35 7 12 6.65 11.569 6.65Z" fill="#2051E5"/>
<path d="M0.53125 35.8594V35H6.53125V35.8594H4.01563V43H3.04688V35.8594H0.53125ZM8.85059 43.1406C8.47038 43.1406 8.12533 43.069 7.81543 42.9258C7.50553 42.7799 7.25944 42.5703 7.07715 42.2969C6.89486 42.0208 6.80371 41.6875 6.80371 41.2969C6.80371 40.9531 6.87142 40.6745 7.00684 40.4609C7.14225 40.2448 7.32324 40.0755 7.5498 39.9531C7.77637 39.8307 8.02637 39.7396 8.2998 39.6797C8.57585 39.6172 8.85319 39.5677 9.13184 39.5313C9.49642 39.4844 9.79199 39.4492 10.0186 39.4258C10.2477 39.3997 10.4144 39.3568 10.5186 39.2969C10.6253 39.237 10.6787 39.1328 10.6787 38.9844V38.9531C10.6787 38.5677 10.5732 38.2682 10.3623 38.0547C10.154 37.8411 9.83757 37.7344 9.41309 37.7344C8.97298 37.7344 8.62793 37.8307 8.37793 38.0234C8.12793 38.2161 7.95215 38.4219 7.85059 38.6406L6.97559 38.3281C7.13184 37.9635 7.34017 37.6797 7.60059 37.4766C7.86361 37.2708 8.15007 37.1276 8.45996 37.0469C8.77246 36.9635 9.07975 36.9219 9.38184 36.9219C9.57454 36.9219 9.7959 36.9453 10.0459 36.9922C10.2985 37.0365 10.542 37.1289 10.7764 37.2695C11.0133 37.4102 11.21 37.6224 11.3662 37.9062C11.5225 38.1901 11.6006 38.5703 11.6006 39.0469V43H10.6787V42.1875H10.6318C10.5693 42.3177 10.4652 42.457 10.3193 42.6055C10.1735 42.7539 9.97949 42.8802 9.7373 42.9844C9.49512 43.0885 9.19954 43.1406 8.85059 43.1406ZM8.99121 42.3125C9.35579 42.3125 9.66309 42.2409 9.91309 42.0977C10.1657 41.9544 10.3558 41.7695 10.4834 41.543C10.6136 41.3164 10.6787 41.0781 10.6787 40.8281V39.9844C10.6396 40.0312 10.5537 40.0742 10.4209 40.1133C10.2907 40.1497 10.1396 40.1823 9.96777 40.2109C9.7985 40.237 9.63314 40.2604 9.47168 40.2812C9.31283 40.2995 9.18392 40.3151 9.08496 40.3281C8.84538 40.3594 8.62142 40.4102 8.41309 40.4805C8.20736 40.5482 8.04069 40.651 7.91309 40.7891C7.78809 40.9245 7.72559 41.1094 7.72559 41.3437C7.72559 41.6641 7.84408 41.9062 8.08105 42.0703C8.32064 42.2318 8.62402 42.3125 8.99121 42.3125ZM17.5332 38.3437L16.7051 38.5781C16.653 38.4401 16.5762 38.306 16.4746 38.1758C16.3757 38.043 16.2402 37.9336 16.0684 37.8477C15.8965 37.7617 15.6764 37.7187 15.4082 37.7187C15.041 37.7187 14.735 37.8034 14.4902 37.9727C14.248 38.1393 14.127 38.3516 14.127 38.6094C14.127 38.8385 14.2103 39.0195 14.377 39.1523C14.5436 39.2852 14.804 39.3958 15.1582 39.4844L16.0488 39.7031C16.5853 39.8333 16.985 40.0326 17.248 40.3008C17.5111 40.5664 17.6426 40.9089 17.6426 41.3281C17.6426 41.6719 17.5436 41.9792 17.3457 42.25C17.1504 42.5208 16.877 42.7344 16.5254 42.8906C16.1738 43.0469 15.765 43.125 15.2988 43.125C14.6868 43.125 14.1803 42.9922 13.7793 42.7266C13.3783 42.4609 13.1243 42.0729 13.0176 41.5625L13.8926 41.3437C13.9759 41.6667 14.1335 41.9089 14.3652 42.0703C14.5996 42.2318 14.9056 42.3125 15.2832 42.3125C15.7129 42.3125 16.054 42.2214 16.3066 42.0391C16.5618 41.8542 16.6895 41.6328 16.6895 41.375C16.6895 41.1667 16.6165 40.9922 16.4707 40.8516C16.3249 40.7083 16.1009 40.6016 15.7988 40.5312L14.7988 40.2969C14.2493 40.1667 13.8457 39.9648 13.5879 39.6914C13.3327 39.4154 13.2051 39.0703 13.2051 38.6562C13.2051 38.3177 13.3001 38.0182 13.4902 37.7578C13.6829 37.4974 13.9447 37.293 14.2754 37.1445C14.6087 36.9961 14.9863 36.9219 15.4082 36.9219C16.002 36.9219 16.4681 37.0521 16.8066 37.3125C17.1478 37.5729 17.39 37.9167 17.5332 38.3437ZM19.8896 40.8125L19.874 39.6719H20.0615L22.6865 37H23.8271L21.0303 39.8281H20.9521L19.8896 40.8125ZM19.0303 43V35H19.9521V43H19.0303ZM22.8428 43L20.499 40.0312L21.1553 39.3906L24.0146 43H22.8428Z" fill="#2051E5"/>
</svg>
