<svg width="23" height="16" viewBox="0 0 23 16" fill="none" xmlns="http://www.w3.org/2000/svg">
<path d="M11.449 10.5396C14.8802 10.5396 17.81 11.0836 17.81 13.2604C17.81 15.4362 14.899 16 11.449 16C8.01785 16 5.08809 15.456 5.08809 13.2802C5.08809 11.1034 7.99904 10.5396 11.449 10.5396ZM16.9351 9.22888C18.2468 9.20456 19.6571 9.38468 20.1782 9.51257C21.2823 9.72962 22.0084 10.1727 22.3093 10.8166C22.5636 11.3453 22.5636 11.9586 22.3093 12.4864C21.849 13.4851 20.3654 13.8058 19.7887 13.8886C19.6696 13.9066 19.5738 13.8031 19.5864 13.6833C19.8809 10.9157 17.5377 9.60353 16.9315 9.30183C16.9055 9.28832 16.9002 9.2676 16.9028 9.255C16.9046 9.24599 16.9154 9.23158 16.9351 9.22888ZM6.0656 9.22924C6.0853 9.23194 6.09515 9.24635 6.09694 9.25446C6.09962 9.26796 6.09425 9.28778 6.06918 9.30219C5.4621 9.60389 3.11883 10.9161 3.41342 13.6827C3.42595 13.8034 3.33104 13.9061 3.21195 13.889C2.63531 13.8061 1.15163 13.4855 0.691392 12.4867C0.436203 11.9581 0.436203 11.3457 0.691392 10.817C0.992248 10.1731 1.71752 9.72998 2.82156 9.51203C3.34358 9.38504 4.75294 9.20492 6.0656 9.22924ZM11.449 0C13.7851 0 15.6583 1.88227 15.6583 4.23285C15.6583 6.58253 13.7851 8.4666 11.449 8.4666C9.11292 8.4666 7.23974 6.58253 7.23974 4.23285C7.23974 1.88227 9.11292 0 11.449 0ZM17.1634 0.705896C19.4198 0.705896 21.1918 2.84123 20.5883 5.21974C20.1809 6.82102 18.7062 7.88463 17.0631 7.8414C16.8984 7.8369 16.7363 7.82159 16.5796 7.79457C16.4659 7.77476 16.4086 7.64597 16.473 7.55051C17.0998 6.62288 17.4571 5.50703 17.4571 4.30922C17.4571 3.05918 17.0667 1.8938 16.3889 0.938252C16.3674 0.908532 16.3513 0.862601 16.3728 0.828378C16.3907 0.800459 16.4238 0.78605 16.4551 0.778845C16.6835 0.732013 16.9181 0.705896 17.1634 0.705896ZM5.83593 0.705806C6.08127 0.705806 6.31586 0.731923 6.54509 0.778755C6.57553 0.78596 6.60956 0.80127 6.62746 0.828288C6.64806 0.862511 6.63284 0.908442 6.61135 0.938162C5.93353 1.89371 5.54313 3.05909 5.54313 4.30913C5.54313 5.50694 5.9004 6.62279 6.52718 7.55042C6.59165 7.64588 6.53434 7.77467 6.42063 7.79448C6.26304 7.8224 6.10186 7.83681 5.93711 7.84131C4.29404 7.88454 2.81932 6.82093 2.41191 5.21965C1.80751 2.84114 3.57951 0.705806 5.83593 0.705806Z" fill="white"/>
</svg>
