<svg width="25" height="24" viewBox="0 0 25 24" fill="none" xmlns="http://www.w3.org/2000/svg">
<path d="M16.84 2C20.23 2 22.5 4.38 22.5 7.92V16.091C22.5 19.62 20.23 22 16.84 22H8.17C4.78 22 2.5 19.62 2.5 16.091V7.92C2.5 4.38 4.78 2 8.17 2H16.84ZM16.68 9C16.34 8.66 15.78 8.66 15.44 9L11.31 13.13L9.56 11.38C9.22 11.04 8.66 11.04 8.32 11.38C7.98 11.72 7.98 12.27 8.32 12.62L10.7 14.99C10.87 15.16 11.09 15.24 11.31 15.24C11.54 15.24 11.76 15.16 11.93 14.99L16.68 10.24C17.02 9.9 17.02 9.35 16.68 9Z" fill="white"/>
</svg>
