<svg width="25" height="25" viewBox="0 0 25 25" fill="none" xmlns="http://www.w3.org/2000/svg">
<path d="M9.44308 15.2196C13.4284 15.2196 16.7924 15.8529 16.7924 18.3022C16.7924 20.7495 13.4069 21.3618 9.44308 21.3618L9.17235 21.3608C5.30658 21.3321 2.09375 20.6728 2.09375 18.2792C2.09375 15.8319 5.47928 15.2196 9.44308 15.2196ZM15.6635 13.745C17.1791 13.7163 18.8092 13.9204 19.411 14.0641C20.6869 14.3085 21.5255 14.8058 21.8729 15.5312C22.1674 16.1253 22.1674 16.8152 21.8729 17.4093C21.3415 18.5323 19.6273 18.8936 18.9609 18.9866C18.823 19.0057 18.7124 18.8907 18.7271 18.7547C19.0676 15.6423 16.3601 14.1666 15.6595 13.8274C15.6302 13.8111 15.6233 13.7881 15.6263 13.7728C15.6282 13.7632 15.6409 13.7479 15.6635 13.745ZM9.44308 3.36182C12.1427 3.36182 14.3061 5.48047 14.3061 8.12423C14.3061 10.768 12.1427 12.8866 9.44308 12.8866C6.74445 12.8866 4.58006 10.768 4.58006 8.12423C4.58006 5.48047 6.74445 3.36182 9.44308 3.36182ZM15.9276 4.15724C18.5353 4.15724 20.5822 6.55857 19.8846 9.233C19.4139 11.0354 17.7104 12.2323 15.8122 12.1834C15.6214 12.1796 15.4345 12.1614 15.2525 12.1316C15.1214 12.1087 15.0548 11.964 15.1302 11.8566C15.8543 10.8131 16.2672 9.55688 16.2672 8.21056C16.2672 6.80388 15.8171 5.49398 15.0333 4.41788C15.0079 4.38435 14.9893 4.33356 15.0147 4.29427C15.0343 4.26361 15.0734 4.24636 15.1096 4.23869C15.3738 4.18599 15.6449 4.15724 15.9276 4.15724Z" fill="#2051E5"/>
</svg>
