<svg width="25" height="24" viewBox="0 0 25 24" fill="none" xmlns="http://www.w3.org/2000/svg">
<path fill-rule="evenodd" clip-rule="evenodd" d="M10.0915 15.2068C13.7805 15.2068 16.9335 15.7658 16.9335 17.9988C16.9335 20.2318 13.8015 20.8068 10.0915 20.8068C6.40151 20.8068 3.24951 20.2528 3.24951 18.0188C3.24951 15.7848 6.38051 15.2068 10.0915 15.2068Z" stroke="#868686" stroke-width="1.5" stroke-linecap="round" stroke-linejoin="round"/>
<path fill-rule="evenodd" clip-rule="evenodd" d="M10.0916 12.0198C7.66957 12.0198 5.70557 10.0568 5.70557 7.63476C5.70557 5.21276 7.66957 3.24976 10.0916 3.24976C12.5126 3.24976 14.4766 5.21276 14.4766 7.63476C14.4856 10.0478 12.5356 12.0108 10.1226 12.0198H10.0916Z" stroke="#868686" stroke-width="1.5" stroke-linecap="round" stroke-linejoin="round"/>
<path d="M16.9832 10.8815C18.5842 10.6565 19.8172 9.28253 19.8202 7.61953C19.8202 5.98053 18.6252 4.62053 17.0582 4.36353" stroke="#868686" stroke-width="1.5" stroke-linecap="round" stroke-linejoin="round"/>
<path d="M19.0955 14.7322C20.6465 14.9632 21.7295 15.5072 21.7295 16.6272C21.7295 17.3982 21.2195 17.8982 20.3955 18.2112" stroke="#868686" stroke-width="1.5" stroke-linecap="round" stroke-linejoin="round"/>
</svg>
